<svg xmlns="http://www.w3.org/2000/svg" viewBox="0 0 24 24"><g fill-rule="nonzero" fill="none"><circle fill="#FFF" cx="12" cy="12" r="12"/><path d="M17.456 7.908s-1.56-1.224-3.408-1.364l-.164.333c1.67.407 2.433.993 3.235 1.71-1.378-.703-2.742-1.364-5.114-1.364s-3.736.661-5.114 1.365c.801-.718 1.71-1.37 3.234-1.711l-.164-.333c-1.936.183-3.408 1.364-3.408 1.364s-1.744 2.531-2.044 7.5c1.758 2.03 4.43 2.044 4.43 2.044l.558-.746a6.807 6.807 0 0 1-2.944-1.983c1.102.835 2.77 1.707 5.456 1.707 2.686 0 4.35-.867 5.457-1.707a6.807 6.807 0 0 1-2.944 1.983l.558.746s2.672-.015 4.43-2.044c-.31-4.969-2.054-7.5-2.054-7.5Zm-7.673 6.136c-.661 0-1.195-.61-1.195-1.364 0-.755.534-1.364 1.195-1.364.66 0 1.195.609 1.195 1.364 0 .754-.534 1.364-1.195 1.364Zm4.434 0c-.66 0-1.195-.61-1.195-1.364 0-.755.534-1.364 1.195-1.364s1.195.609 1.195 1.364c0 .754-.539 1.364-1.195 1.364Z" fill="#333"/></g></svg>