<?xml version="1.0" encoding="UTF-8"?>
<svg width="20px" height="20px" viewBox="0 0 20 20" version="1.1" xmlns="http://www.w3.org/2000/svg" xmlns:xlink="http://www.w3.org/1999/xlink">
    <title>footer-telegram</title>
    <g id="Page-1" stroke="none" stroke-width="1" fill="none" fill-rule="evenodd">
        <g id="footer-telegram" fill="#FFFFFF" fill-rule="nonzero">
            <path d="M10,20 C4.477,20 0,15.523 0,10 C0,4.477 4.477,0 10,0 C15.523,0 20,4.477 20,10 C20,15.523 15.523,20 10,20 Z M6.89,11.17 L6.903,11.163 L7.773,14.033 C7.885,14.344 8.039,14.4 8.226,14.374 C8.414,14.349 8.513,14.248 8.636,14.13 L9.824,12.982 L12.374,14.87 C12.84,15.127 13.175,14.994 13.291,14.438 L14.948,6.616 C15.131,5.888 14.811,5.596 14.246,5.828 L4.513,9.588 C3.849,9.854 3.853,10.226 4.393,10.391 L6.89,11.171 L6.89,11.17 Z" id="Shape"></path>
        </g>
    </g>
</svg>