<?xml version="1.0" encoding="UTF-8"?>
<svg width="24px" height="24px" viewBox="0 0 24 24" version="1.1" xmlns="http://www.w3.org/2000/svg" xmlns:xlink="http://www.w3.org/1999/xlink">
    <title>294709_circle_twitter_icon</title>
    <g id="Page-1" stroke="none" stroke-width="1" fill="none" fill-rule="evenodd">
        <g id="294709_circle_twitter_icon" fill-rule="nonzero">
            <circle id="Oval" fill="#FFFFFF" cx="12" cy="12" r="12"></circle>
            <path d="M18.4,7.7 C17.95,7.95 17.4,8.1 16.9,8.15 C17.45,7.8 17.85,7.25 18.05,6.6 C17.55,6.9 17,7.15 16.35,7.3 C15.85,6.75 15.2,6.4 14.45,6.4 C13,6.4 11.8,7.65 11.8,9.25 C11.8,9.45 11.8,9.7 11.85,9.9 C9.65,9.8 7.7,8.65 6.4,6.95 C6.15,7.35 6.05,7.85 6.05,8.4 C6.05,9.4 6.5,10.25 7.2,10.75 C6.75,10.75 6.35,10.6 6,10.4 C6,10.4 6,10.45 6,10.45 C6,11.8 6.9,12.95 8.1,13.25 C7.9,13.3 7.65,13.35 7.4,13.35 C7.25,13.35 7.05,13.35 6.9,13.3 C7.25,14.45 8.2,15.25 9.35,15.25 C8.45,16 7.3,16.45 6.1,16.45 C5.9,16.45 5.7,16.45 5.45,16.4 C6.6,17.2 8,17.7 9.5,17.7 C14.35,17.7 17,13.4 17,9.65 C17,9.55 17,9.4 17,9.3 C17.6,8.8 18.05,8.3 18.4,7.7 Z" id="Path" fill="#333333"></path>
        </g>
    </g>
</svg>