<svg width="350" height="350" xmlns="http://www.w3.org/2000/svg"><g fill="none" fill-rule="evenodd"><circle fill="#3B99FC" cx="175" cy="175" r="175"/><path d="M86.439 119.256c48.91-47.888 128.212-47.888 177.123 0l5.886 5.764a6.041 6.041 0 010 8.67l-20.136 19.716a3.179 3.179 0 01-4.428 0l-8.101-7.931c-34.122-33.408-89.444-33.408-123.566 0l-8.675 8.494a3.179 3.179 0 01-4.428 0l-20.136-19.716a6.041 6.041 0 010-8.67l6.46-6.327zm218.767 40.774l17.922 17.547a6.041 6.041 0 010 8.67l-80.81 79.122c-2.446 2.394-6.41 2.394-8.856 0l-57.354-56.155a1.59 1.59 0 00-2.214 0L116.54 265.37c-2.446 2.394-6.411 2.394-8.857 0l-80.812-79.122a6.041 6.041 0 010-8.671l17.922-17.547c2.445-2.394 6.41-2.394 8.856 0l57.355 56.155a1.59 1.59 0 002.214 0l57.352-56.155c2.446-2.394 6.41-2.395 8.856 0l57.355 56.155a1.59 1.59 0 002.214 0l57.354-56.154c2.446-2.394 6.41-2.394 8.856 0z" fill="#FFF" fill-rule="nonzero"/></g></svg>