<?xml version="1.0" encoding="UTF-8"?>
<svg width="205px" height="237px" viewBox="0 0 205 237" version="1.1" xmlns="http://www.w3.org/2000/svg" xmlns:xlink="http://www.w3.org/1999/xlink">
    <title>Brave-logo-color-RGB</title>
    <defs>
        <linearGradient x1="0%" y1="50.7055163%" x2="100%" y2="50.7055163%" id="linearGradient-1">
            <stop stop-color="#FF5500" offset="0%"></stop>
            <stop stop-color="#FF5500" offset="40.9877232%"></stop>
            <stop stop-color="#FF2000" offset="58.1981215%"></stop>
            <stop stop-color="#FF2000" offset="100%"></stop>
        </linearGradient>
        <linearGradient x1="2.1484375%" y1="50.7055163%" x2="100%" y2="50.7055163%" id="linearGradient-2">
            <stop stop-color="#FF452A" offset="0%"></stop>
            <stop stop-color="#FF2000" offset="100%"></stop>
        </linearGradient>
    </defs>
    <g id="Page-1" stroke="none" stroke-width="1" fill="none" fill-rule="evenodd">
        <g id="Brave-logo-color-RGB" fill-rule="nonzero">
            <g id="Build-Icons/Release" transform="translate(0.360140, 0.000000)">
                <g id="Logo" transform="translate(2.051528, 0.000000)">
                    <path d="M189.157597,56.1750933 L194.548096,42.694892 C194.548096,42.694892 187.687461,35.2058915 179.35669,26.7183576 C171.02592,18.2308236 153.384288,23.2234906 153.384288,23.2234906 L133.292429,9.98533409e-05 L98.0091648,9.98533409e-05 L62.7259006,9.98533409e-05 L42.6340421,23.2234906 C42.6340421,23.2234906 24.9924101,18.2308236 16.6616394,26.7183576 C8.3308687,35.2058915 1.47023401,42.694892 1.47023401,42.694892 L6.86073268,56.1750933 L9.80090668e-05,76.1457613 C9.80090668e-05,76.1457613 20.1777147,154.0089 22.5421834,163.517435 C27.1976141,182.239936 30.3829088,189.479303 43.6141327,198.965371 C56.845357,208.451438 80.8575784,224.927239 84.7779408,227.423573 C88.6983036,229.919906 93.5987571,234.172161 98.0091648,234.172161 C102.419573,234.172161 107.320026,229.919906 111.240389,227.423573 C115.160752,224.927239 139.172973,208.451438 152.404197,198.965371 C165.635421,189.479303 168.820716,182.239936 173.476146,163.517435 C175.840125,154.0089 196.018232,76.1457613 196.018232,76.1457613 L189.157597,56.1750933 Z" id="Head" fill="url(#linearGradient-1)"></path>
                    <path d="M98.0090668,145.729261 C99.3522811,145.729261 107.958457,148.824714 114.864666,152.465367 C121.770385,156.106519 126.775218,158.681238 128.375216,159.70124 C129.974724,160.721741 128.999044,162.645416 127.542139,163.694874 C126.084744,164.744333 106.502043,180.193642 104.601647,181.901134 C102.700761,183.609125 99.9079927,186.429483 98.0090668,186.429483 C96.1101412,186.429483 93.3168829,183.609125 91.4164872,181.901134 C89.5156014,180.193642 69.9333896,164.744333 68.4759946,163.694874 C67.0186001,162.645416 66.0434098,160.721741 67.6429176,159.70124 C69.2429158,158.681238 74.2477488,156.106519 81.1539578,152.465367 C88.0591865,148.824714 96.6658528,145.729261 98.0090668,145.729261 Z M98.1141481,35.6927736 C98.7736802,35.71142 102.489579,35.8953551 107.810072,37.702225 C113.690616,39.6992919 120.061205,42.1956254 123.001477,42.1956254 C125.941749,42.1956254 147.748767,37.9518584 147.748767,37.9518584 C147.748767,37.9518584 173.591797,69.7801108 173.591797,76.5826198 C173.591797,83.3851284 170.340837,85.1804918 167.072234,88.7167977 C163.803632,92.2531036 149.528121,107.69742 147.694861,109.680507 C145.861602,111.664094 142.045129,114.671177 144.290026,120.083728 C146.534924,125.496278 149.84665,132.383662 146.16396,139.369402 C142.480779,146.355141 136.171445,151.017793 132.128571,150.246926 C128.085697,149.475559 118.591069,144.420483 115.099496,142.111374 C111.607923,139.802266 100.541719,130.503923 100.541719,126.946149 C100.541719,123.388873 111.980847,117.001255 114.093923,115.549887 C116.207979,114.099018 125.84717,108.481768 126.044658,106.277006 C126.241657,104.071745 126.16668,103.425195 123.321967,97.9771967 C120.477254,92.5286989 115.354319,85.2583772 116.206998,80.4209822 C117.059677,75.5840862 125.321842,73.0687807 131.218067,70.8001127 C137.113312,68.5319439 148.465213,64.2477363 149.882914,63.5817149 C151.301595,62.9151938 150.935041,62.2806259 146.638814,61.8657349 C142.343566,61.4508443 130.153199,59.8022658 124.65734,61.3629735 C119.161482,62.9236812 109.772213,65.2981938 109.011663,66.5573443 C108.251113,67.8164947 107.58024,67.8589326 108.361373,72.2025529 C109.142015,76.5461732 113.163327,97.388561 113.553403,101.090624 C113.943969,104.792686 114.70746,107.240092 110.789547,108.152751 C106.871145,109.065411 100.275625,110.650083 98.0091648,110.650083 C95.7427053,110.650083 89.1466952,109.065411 85.2287827,108.152751 C81.3103802,107.240092 82.0738709,104.792686 82.4644368,101.090624 C82.8550032,97.388561 86.8758251,76.5461732 87.6569574,72.2025529 C88.4375996,67.8589326 87.7667273,67.8164947 87.0066671,66.5573443 C86.2461169,65.2981938 76.856358,62.9236812 71.3604996,61.3629735 C65.8646411,59.8022658 53.6747634,61.4508443 49.3790259,61.8657349 C45.0832888,62.2806259 44.7167346,62.9151938 46.1349261,63.5817149 C47.5531173,64.2477363 58.9050172,68.5319439 64.8002628,70.8001127 C70.6959982,73.0687807 78.9586525,75.5840862 79.8113315,80.4209822 C80.6640105,85.2583772 75.5405863,92.5286989 72.6963633,97.9771967 C69.8516499,103.425195 69.7761831,104.071745 69.9736712,106.277006 C70.1706696,108.481768 79.8103513,114.099018 81.9239169,115.549887 C84.0374825,117.001255 95.4761204,123.388873 95.4761204,126.946149 C95.4761204,130.503923 84.4104069,139.802266 80.9188341,142.111374 C77.4272609,144.420483 67.9326324,149.475559 63.8897586,150.246926 C59.8468845,151.017793 53.5375508,146.355141 49.85437,139.369402 C46.1716792,132.383662 49.4834059,125.496278 51.7278132,120.083728 C53.972711,114.671177 50.1567282,111.664094 48.3229784,109.680507 C46.4902088,107.69742 32.2142082,92.2531036 28.9456058,88.7167977 C25.6770034,85.1804918 22.4265327,83.3851284 22.4265327,76.5826198 C22.4265327,69.7801108 48.2695634,37.9518584 48.2695634,37.9518584 C48.2695634,37.9518584 70.076581,42.1956254 73.0168528,42.1956254 C75.957125,42.1956254 82.3277143,39.6992919 88.2082583,37.702225 C93.5287505,35.8953551 97.2446498,35.71142 97.9041818,35.6927736 L98.1141481,35.6927736 Z" id="Face" fill="#FFFFFF"></path>
                    <g id="Top-Head" transform="translate(16.067797, 0.000000)" fill="url(#linearGradient-2)">
                        <path d="M137.316491,23.2234906 L117.224632,9.98533409e-05 L81.9413682,9.98533409e-05 L46.658104,9.98533409e-05 L26.5662455,23.2234906 C26.5662455,23.2234906 8.92461348,18.2308236 0.593842786,26.7183576 C0.593842786,26.7183576 24.116019,24.5550349 32.2017668,37.9518584 C32.2017668,37.9518584 54.0087844,42.1956254 56.9490562,42.1956254 C59.8893284,42.1956254 66.2599177,39.6992919 72.1404617,37.702225 C78.0210058,35.7051582 81.9413682,35.6906795 81.9413682,35.6906795 C81.9413682,35.6906795 85.861731,35.7051582 91.742275,37.702225 C97.622819,39.6992919 103.993408,42.1956254 106.933681,42.1956254 C109.873952,42.1956254 131.68097,37.9518584 131.68097,37.9518584 C139.766718,24.5550349 163.288894,26.7183576 163.288894,26.7183576 C154.958123,18.2308236 137.316491,23.2234906 137.316491,23.2234906" id="path-3"></path>
                    </g>
                </g>
            </g>
        </g>
    </g>
</svg>