<svg width="257" height="238" xmlns="http://www.w3.org/2000/svg"><g fill-rule="nonzero" fill="none" stroke-linecap="round" stroke-linejoin="round"><path stroke="#E2761B" fill="#E2761B" d="M243.1.5l-99.5 73.9L162 30.8z"/><g fill="#E4761B" stroke="#E4761B"><path d="M13.4.5l98.7 74.6-17.5-44.3zM207.3 171.8l-26.5 40.6 56.7 15.6 16.3-55.3zM2.9 172.7L19.1 228l56.7-15.6-26.5-40.6z"/><path d="M72.6 103.2l-15.8 23.9 56.3 2.5-2-60.5zM183.9 103.2l-39-34.8-1.3 61.2 56.2-2.5zM75.8 212.4l33.8-16.5-29.2-22.8zM146.9 195.9l33.9 16.5-4.7-39.3z"/></g><g fill="#D7C1B3" stroke="#D7C1B3"><path d="M180.8 212.4l-33.9-16.5 2.7 22.1-.3 9.3zM75.8 212.4l31.5 14.9-.2-9.3 2.5-22.1z"/></g><path stroke="#233447" fill="#233447" d="M107.8 158.5l-28.2-8.3 19.9-9.1zM148.7 158.5l8.3-17.4 20 9.1z"/><g fill="#CD6116" stroke="#CD6116"><path d="M75.8 212.4l4.8-40.6-31.3.9zM176 171.8l4.8 40.6 26.5-39.7zM199.8 127.1l-56.2 2.5 5.2 28.9 8.3-17.4 20 9.1zM79.6 150.2l20-9.1 8.2 17.4 5.3-28.9-56.3-2.5z"/></g><g fill="#E4751F" stroke="#E4751F"><path d="M56.8 127.1l23.6 46-.8-22.9zM177.1 150.2l-1 22.9 23.7-46zM113.1 129.6l-5.3 28.9 6.6 34.1 1.5-44.9zM143.6 129.6l-2.7 18 1.2 45 6.7-34.1z"/></g><path stroke="#F6851B" fill="#F6851B" d="M148.8 158.5l-6.7 34.1 4.8 3.3 29.2-22.8 1-22.9zM79.6 150.2l.8 22.9 29.2 22.8 4.8-3.3-6.6-34.1z"/><path stroke="#C0AD9E" fill="#C0AD9E" d="M149.3 227.3l.3-9.3-2.5-2.2h-37.7l-2.3 2.2.2 9.3-31.5-14.9 11 9 22.3 15.5h38.3l22.4-15.5 11-9z"/><path stroke="#161616" fill="#161616" d="M146.9 195.9l-4.8-3.3h-27.7l-4.8 3.3-2.5 22.1 2.3-2.2h37.7l2.5 2.2z"/><g fill="#763D16" stroke="#763D16"><path d="M247.3 79.2l8.5-40.8L243.1.5l-96.2 71.4 37 31.3 52.3 15.3 11.6-13.5-5-3.6 8-7.3-6.2-4.8 8-6.1zM.8 38.4l8.5 40.8-5.4 4 8 6.1-6.1 4.8 8 7.3-5 3.6 11.5 13.5 52.3-15.3 37-31.3L13.4.5z"/></g><path stroke="#F6851B" fill="#F6851B" d="M236.2 118.5l-52.3-15.3 15.9 23.9-23.7 46 31.2-.4h46.5zM72.6 103.2l-52.3 15.3-17.4 54.2h46.4l31.1.4-23.6-46zM143.6 129.6l3.3-57.7 15.2-41.1H94.6l15 41.1 3.5 57.7 1.2 18.2.1 44.8h27.7l.2-44.8z"/></g></svg>