<svg width="27" height="27" xmlns="http://www.w3.org/2000/svg" xmlns:xlink="http://www.w3.org/1999/xlink"><defs><radialGradient cx="52.845%" cy="100%" fx="52.845%" fy="100%" r="99.718%" id="a"><stop stop-color="#00f5f5" offset="0%"/><stop stop-color="#8000FF" offset="100%"/></radialGradient><circle id="b" cx="13.5" cy="13.5" r="11.5"/></defs><g fill="none" fill-rule="evenodd"><circle fill="#00f5f5" cx="13.5" cy="13.5" r="13.5"/><circle fill="url(#a)" cx="13.5" cy="13.5" r="11.5"/><mask id="c" fill="#fff"><use xlink:href="#b"/></mask><g mask="url(#c)"><path d="M9.474 12.763v.895h8.052v-.895h.895v.895h.895v1.79h-.895v6.263h-.895v-5.369h-.894v-.895h-.895v-.894h-1.79v.894h-.894v.895h-1.79v-.895h-.895v-.894h-1.79v1.79h.896v8.946h-.895v-8.052h-.895v-3.58h.895v-.894h.895zm7.158 9.842v.895h-3.58v1.79h-.894v-2.685h4.474zm.894-.894v.894h-.894v-.894h.894zm-1.79-1.79v.895h-2.683v-.895h2.684zm0-2.684v.895h-1.789v-.895h1.79z" fill="#000" fill-rule="nonzero"/><path d="M12.158 25.29H9.474v-4.474h.894v.895h.895v.894h.895v2.684zm-1.79-10.737v.894h.895v.895h1.79v-.895h.894v-.894h1.79v.894h.895v.895h.894v1.79h-.894v.894h-5.369v-.894h-.895v-.895h-.894v-.895h-.895v-1.79h1.79zm5.369 2.684h-1.79v.895h1.79v-.895zm1.79-4.474v.895H9.473v-.895h8.052z" fill="#DBB180" fill-rule="nonzero"/><path d="M9.474 17.237h.894v.895h.895v.894h5.369v-.894h.894v3.579h-.894v.894h-5.369v-.894h-.895v-.895h-.894v-3.58zm6.263 2.684h-2.684v.895h2.684v-.895z" fill="#8B8B8B" fill-rule="nonzero"/><path d="M5.895 10.079v.895h15.21v-.895H22v1.79h-.895v.894H5.895v-.895H5v-1.79h.895zm4.473-2.684V6.5h1.79v.895h2.684V6.5h1.79v.895h.894v2.684H9.474V7.395h.894z" fill="#FFF" fill-rule="nonzero"/><path d="M8.579 11.079v-1h9.842v1H8.58z" fill="#B4B2B0" fill-rule="nonzero"/></g></g></svg>