<?xml version="1.0" encoding="UTF-8"?>
<svg width="27px" height="27px" viewBox="0 0 27 27" version="1.1" xmlns="http://www.w3.org/2000/svg" xmlns:xlink="http://www.w3.org/1999/xlink">
    <title>Group</title>
    <defs>
        <radialGradient cx="52.845072%" cy="100%" fx="52.845072%" fy="100%" r="99.7179901%" id="radialGradient-1">
            <stop stop-color="#00E6E6" offset="0%"></stop>
            <stop stop-color="#6600CC" offset="100%"></stop>
        </radialGradient>
        <circle id="path-2" cx="13.5" cy="13.5" r="11.5"></circle>
    </defs>
    <g id="Site" stroke="none" stroke-width="1" fill="none" fill-rule="evenodd">
        <g id="Home" transform="translate(-26.000000, -28.000000)">
            <g id="Group" transform="translate(26.000000, 28.000000)">
                <circle id="Oval" fill="#00E6E6" cx="13.5" cy="13.5" r="13.5"></circle>
                <circle id="Oval" fill="url(#radialGradient-1)" cx="13.5" cy="13.5" r="11.5"></circle>
                <mask id="mask-3" fill="white">
                    <use xlink:href="#path-2"></use>
                </mask>
                <g id="Mask"></g>
                <g id="logo" mask="url(#mask-3)">
                    <g transform="translate(5.000000, 6.500000)">
                        <g id="Outline" transform="translate(2.684211, 6.263158)">
                            <path d="M1.78947368,-3.27515792e-15 L1.78947368,0.894736842 L9.84210526,0.894736842 L9.84210526,-3.27515792e-15 L10.7368421,-3.27515792e-15 L10.7368421,0.894736842 L11.6315789,0.894736842 L11.6315789,2.68421053 L10.7368421,2.68421053 L10.7368421,8.94736842 L9.84210526,8.94736842 L9.84210526,3.57894737 L8.94736842,3.57894737 L8.94736842,2.68421053 L8.05263158,2.68421053 L8.05263158,1.78947368 L6.26315789,1.78947368 L6.26315789,2.68421053 L5.36842105,2.68421053 L5.36842105,3.57894737 L3.57894737,3.57894737 L3.57894737,2.68421053 L2.68421053,2.68421053 L2.68421053,1.78947368 L0.894736842,1.78947368 L0.894736842,3.57894737 L1.78947368,3.57894737 L1.78947368,12.5263158 L0.894736842,12.5263158 L0.894736842,4.47368421 L5.36237721e-14,4.47368421 L5.36237721e-14,0.894736842 L0.894736842,0.894736842 L0.894736842,-3.27515792e-15 L1.78947368,-3.27515792e-15 Z M8.94736842,9.84210526 L8.94736842,10.7368421 L5.36842105,10.7368421 L5.36842105,12.5263158 L4.47368421,12.5263158 L4.47368421,9.84210526 L8.94736842,9.84210526 Z M9.84210526,8.94736842 L9.84210526,9.84210526 L8.94736842,9.84210526 L8.94736842,8.94736842 L9.84210526,8.94736842 Z M8.05263158,7.15789474 L8.05263158,8.05263158 L5.36842105,8.05263158 L5.36842105,7.15789474 L8.05263158,7.15789474 Z M8.05263158,4.47368421 L8.05263158,5.36842105 L6.26315789,5.36842105 L6.26315789,4.47368421 L8.05263158,4.47368421 Z" id="Combined-Shape" fill="#000000" fill-rule="nonzero"></path>
                        </g>
                        <g id="Skin" transform="translate(3.578947, 6.263158)">
                            <path d="M3.57894737,12.5263158 L0.894736842,12.5263158 L0.894736842,8.05263158 L1.78947368,8.05263158 L1.78947368,8.94736842 L2.68421053,8.94736842 L2.68421053,9.84210526 L3.57894737,9.84210526 L3.57894737,12.5263158 Z M1.78947368,1.78947368 L1.78947368,2.68421053 L2.68421053,2.68421053 L2.68421053,3.57894737 L4.47368421,3.57894737 L4.47368421,2.68421053 L5.36842105,2.68421053 L5.36842105,1.78947368 L7.15789474,1.78947368 L7.15789474,2.68421053 L8.05263158,2.68421053 L8.05263158,3.57894737 L8.94736842,3.57894737 L8.94736842,5.36842105 L8.05263158,5.36842105 L8.05263158,6.26315789 L2.68421053,6.26315789 L2.68421053,5.36842105 L1.78947368,5.36842105 L1.78947368,4.47368421 L0.894736842,4.47368421 L0.894736842,3.57894737 L5.36237721e-14,3.57894737 L5.36237721e-14,1.78947368 L1.78947368,1.78947368 Z M7.15789474,4.47368421 L5.36842105,4.47368421 L5.36842105,5.36842105 L7.15789474,5.36842105 L7.15789474,4.47368421 Z M8.94736842,-3.27515792e-15 L8.94736842,0.894736842 L0.894736842,0.894736842 L0.894736842,-3.27515792e-15 L8.94736842,-3.27515792e-15 Z" id="Combined-Shape" fill="#DBB180" fill-rule="nonzero"></path>
                        </g>
                        <g id="Beard" transform="translate(4.473684, 10.736842)">
                            <path d="M5.37347944e-14,-2.77555756e-15 L0.894736842,-2.77555756e-15 L0.894736842,0.894736842 L1.78947368,0.894736842 L1.78947368,1.78947368 L7.15789474,1.78947368 L7.15789474,0.894736842 L8.05263158,0.894736842 L8.05263158,4.47368421 L7.15789474,4.47368421 L7.15789474,5.36842105 L1.78947368,5.36842105 L1.78947368,4.47368421 L0.894736842,4.47368421 L0.894736842,3.57894737 L5.37347944e-14,3.57894737 L5.37347944e-14,-2.77555756e-15 Z M6.26315789,2.68421053 L3.57894737,2.68421053 L3.57894737,3.57894737 L6.26315789,3.57894737 L6.26315789,2.68421053 Z" id="Combined-Shape" fill="#8B8B8B" fill-rule="nonzero"></path>
                        </g>
                        <g id="Hat">
                            <path d="M0.894736842,3.57894737 L0.894736842,4.47368421 L16.1052632,4.47368421 L16.1052632,3.57894737 L17,3.57894737 L17,5.36842105 L16.1052632,5.36842105 L16.1052632,6.26315789 L0.894736842,6.26315789 L0.894736842,5.36842105 L0,5.36842105 L0,3.57894737 L0.894736842,3.57894737 Z M5.36842105,0.894736842 L5.36842105,0 L7.15789474,0 L7.15789474,0.894736842 L9.84210526,0.894736842 L9.84210526,0 L11.6315789,0 L11.6315789,0.894736842 L12.5263158,0.894736842 L12.5263158,3.57894737 L4.47368421,3.57894737 L4.47368421,0.894736842 L5.36842105,0.894736842 Z" id="Combined-Shape" fill="#FFFFFF" fill-rule="nonzero"></path>
                        </g>
                        <g id="Hat-Band" transform="translate(3.578947, 3.578947)">
                            <path d="M0,1 L0,0 L9.84210526,0 L9.84210526,1 L0,1 Z" id="Combined-Shape" fill="#B4B2B0" fill-rule="nonzero"></path>
                        </g>
                    </g>
                </g>
            </g>
        </g>
    </g>
</svg>