<?xml version="1.0" standalone="no"?>
<!DOCTYPE svg PUBLIC "-//W3C//DTD SVG 20010904//EN"
 "http://www.w3.org/TR/2001/REC-SVG-20010904/DTD/svg10.dtd">
<svg version="1.0" xmlns="http://www.w3.org/2000/svg"
 width="1200.000000pt" height="1200.000000pt" viewBox="0 0 1200.000000 1200.000000"
 preserveAspectRatio="xMidYMid meet">
<metadata>
Created by potrace 1.14, written by Peter Selinger 2001-2017
</metadata>
<g transform="translate(0.000000,1200.000000) scale(0.100000,-0.100000)"
fill="#000000" stroke="none">
<path d="M5675 11453 c-755 -60 -1333 -204 -1956 -488 -777 -354 -1497 -926
-2036 -1617 -661 -848 -1054 -1875 -1133 -2963 -13 -180 -13 -580 0 -760 98
-1341 659 -2560 1611 -3502 423 -418 857 -730 1382 -994 109 -55 201 -99 203
-97 2 3 6 2931 4 3291 l0 37 -142 0 c-79 0 -234 3 -345 7 l-203 6 0 727 0 727
24 11 c77 35 248 43 499 26 83 -6 87 -8 87 -30 l0 -24 -177 -1 c-105 0 -170
-4 -157 -9 11 -4 35 -25 52 -46 18 -22 41 -48 52 -59 11 -12 20 -25 20 -31 0
-5 9 -17 20 -27 11 -9 20 -24 20 -32 0 -8 12 -25 26 -38 l26 -22 -24 -6 c-13
-4 -60 -7 -105 -8 l-83 -1 0 -435 0 -435 68 0 c98 1 323 17 330 24 3 4 9 113
14 244 4 130 11 257 16 282 8 42 9 43 16 18 6 -21 16 -29 41 -34 19 -3 36 -13
39 -21 4 -9 14 -13 25 -10 14 3 21 -2 25 -19 4 -13 12 -24 20 -24 7 0 23 -9
36 -20 13 -11 29 -20 37 -20 8 0 12 -4 8 -9 -3 -5 4 -13 16 -16 11 -4 30 -16
40 -26 10 -10 25 -19 33 -19 7 0 19 -13 26 -30 7 -16 20 -30 29 -30 17 0 51
-33 51 -50 0 -6 7 -10 15 -10 16 0 105 -85 105 -100 0 -5 9 -12 20 -15 11 -4
37 -22 58 -41 20 -19 43 -32 49 -29 7 2 16 -1 20 -8 9 -13 144 -82 183 -93 27
-7 69 -29 110 -56 18 -12 58 -18 150 -23 69 -3 163 -8 210 -10 47 -2 191 -7
320 -11 129 -3 243 -10 252 -15 9 -5 25 -9 36 -9 11 0 23 -7 26 -16 4 -9 9
-14 13 -11 3 4 15 1 27 -6 21 -12 27 -14 58 -16 10 0 28 -17 41 -36 l24 -35 7
92 c3 51 9 194 13 318 6 191 8 219 18 186 7 -23 19 -42 31 -46 23 -8 157 -5
172 4 6 3 14 0 19 -8 7 -12 14 -12 48 0 34 12 41 12 51 -1 8 -11 19 -12 54 -4
33 8 45 7 51 -3 7 -10 9 -10 9 2 0 13 1 13 11 0 8 -11 12 -12 16 -2 6 16 40
16 46 0 3 -7 7 39 8 102 2 108 3 104 9 -65 4 -99 11 -303 15 -454 l8 -274
-235 7 c-157 5 -238 4 -242 -3 -16 -26 185 -276 232 -288 15 -3 121 -7 237 -7
l209 -1 8 45 c4 25 12 72 18 105 41 248 62 335 83 335 4 0 7 7 7 15 0 8 6 15
14 15 8 0 16 6 18 13 3 8 35 13 104 15 84 2 725 2 761 -1 7 0 15 -13 18 -29 8
-33 31 -32 28 1 -3 21 11 29 21 12 3 -5 14 -11 25 -14 14 -3 18 -1 14 9 -3 10
0 12 10 8 10 -3 18 2 22 15 6 19 23 26 48 22 4 -1 3 7 -3 18 -5 11 -10 30 -10
43 0 18 2 20 10 8 7 -11 10 -7 10 18 0 22 4 32 13 30 18 -7 20 -43 3 -61 -20
-20 -20 -27 -1 -27 8 0 15 9 15 19 0 11 5 21 11 23 9 3 9 10 0 26 -10 18 -9
25 3 37 18 18 47 19 66 2 7 -6 4 1 -8 17 -12 16 -22 37 -22 47 0 9 -6 20 -12
23 -7 4 -3 4 10 2 17 -3 25 2 32 20 5 13 15 24 22 24 10 0 10 2 0 9 -11 6 -10
10 5 16 24 11 29 12 54 14 16 1 20 6 16 21 -3 11 -1 20 4 20 5 0 9 4 9 8 0 5
-14 6 -31 4 -22 -3 -30 -1 -25 7 4 6 14 11 22 11 8 0 14 5 14 10 0 6 7 10 15
10 12 0 15 -39 17 -260 l3 -260 -37 -15 -38 -15 0 -145 c0 -108 -3 -147 -12
-149 -99 -29 -335 -110 -343 -118 -7 -6 -10 -313 -10 -881 l0 -872 -142 4
-143 4 0 -148 0 -148 -140 5 -139 5 -3 -146 -3 -146 -45 1 c-25 1 -135 2 -245
4 -110 2 -283 6 -385 10 -102 4 -327 11 -500 14 -173 3 -424 9 -557 12 l-243
7 0 -516 c0 -482 1 -516 18 -521 28 -8 265 -34 425 -47 193 -15 764 -6 947 15
1143 130 2145 562 2991 1289 1103 949 1778 2284 1889 3736 13 174 13 638 0
812 -80 1045 -454 2038 -1083 2874 -320 426 -744 841 -1177 1152 -829 595
-1784 938 -2815 1013 -126 9 -590 11 -690 3z m-82 -1468 c48 -2 93 -8 100 -14
7 -5 35 -10 62 -11 28 -1 71 -4 97 -7 l47 -5 3 -131 3 -131 30 -1 c23 0 30 -5
35 -25 5 -23 12 -25 70 -30 l65 -5 3 -48 c3 -53 6 -54 81 -18 l34 16 1 88 c1
83 2 89 26 102 14 7 126 46 250 87 l225 73 171 1 c97 1 179 6 190 12 13 7 100
9 250 6 250 -5 311 -9 329 -24 6 -5 56 -11 111 -12 l99 -3 3 -132 3 -133 34 0
c19 0 37 -6 42 -15 6 -10 33 -15 103 -17 l95 -3 3 -132 3 -133 39 0 40 0 0
-584 0 -584 -147 -47 c-82 -26 -159 -51 -173 -57 -14 -6 -79 -28 -145 -49
-204 -67 -295 -101 -290 -109 2 -4 5 -132 6 -284 1 -195 5 -276 13 -276 11 0
42 10 341 108 83 27 177 57 210 67 33 9 65 20 70 25 6 4 34 13 63 21 l52 13 0
54 0 55 184 -7 c214 -8 195 -20 195 117 -1 49 3 92 7 96 5 4 38 16 74 26 36
10 70 22 75 26 6 4 39 15 75 24 36 9 74 21 85 26 11 5 85 30 165 55 80 25 190
61 245 79 l100 32 280 -6 280 -6 3 -131 3 -132 34 -6 35 -7 0 -429 0 -429 -72
-22 c-40 -12 -77 -25 -83 -29 -5 -5 -37 -15 -71 -24 -33 -9 -119 -35 -190 -60
-71 -24 -156 -51 -189 -60 -33 -9 -69 -21 -80 -26 -11 -4 -76 -27 -145 -50
-69 -22 -133 -45 -142 -50 -10 -5 -23 -8 -30 -5 -13 5 -366 24 -478 27 -30 0
-62 -2 -70 -5 -8 -3 -62 -22 -120 -42 l-105 -37 -525 11 c-953 20 -1440 32
-1810 41 -558 16 -1116 28 -1760 40 -322 6 -619 12 -660 15 -84 5 -416 14
-869 23 l-304 7 -2 22 c-1 13 -4 25 -6 27 -2 2 -94 6 -204 9 -110 3 -201 6
-202 6 -2 1 -3 196 -3 434 l0 434 40 18 40 18 0 142 0 141 38 13 c20 7 53 18
72 25 19 8 82 28 140 46 58 18 141 45 185 61 44 15 148 49 230 74 83 25 159
51 170 57 29 17 175 21 420 13 l215 -7 0 -134 0 -134 35 0 35 0 0 -145 c0
-109 3 -145 13 -145 6 0 32 10 57 21 25 12 71 23 103 26 l57 6 0 96 c0 53 0
362 0 687 l0 591 40 16 40 15 0 147 c0 108 3 147 13 149 6 3 68 22 137 44
l125 39 5 98 5 97 80 28 c44 15 148 49 230 75 83 25 166 53 185 61 121 50 145
52 500 48 184 -3 375 -7 423 -9z m894 -4717 c-3 -8 -6 -5 -6 6 -1 11 2 17 5
13 3 -3 4 -12 1 -19z m0 -60 c-3 -8 -6 -5 -6 6 -1 11 2 17 5 13 3 -3 4 -12 1
-19z m0 -65 c-3 -10 -5 -2 -5 17 0 19 2 27 5 18 2 -10 2 -26 0 -35z m1669
-122 c-3 -4 -34 -5 -70 -4 l-66 3 3 -123 c2 -123 2 -124 -23 -136 -42 -21 -87
-29 -122 -21 -32 7 -31 8 12 8 25 0 62 7 83 16 l37 16 0 128 0 127 75 -3 c41
-2 73 -7 71 -11z m-6 -107 c0 -13 -4 -24 -9 -24 -4 0 -8 13 -7 29 1 35 16 30
16 -5z m-50 -105 c0 -5 -4 -9 -10 -9 -5 0 -10 7 -10 16 0 8 5 12 10 9 6 -3 10
-10 10 -16z m-139 -160 c-5 -13 -10 -19 -10 -12 -1 15 10 45 15 40 3 -2 0 -15
-5 -28z m-131 -149 c0 -5 -4 -10 -10 -10 -5 0 -10 5 -10 10 0 6 5 10 10 10 6
0 10 -4 10 -10z m70 1 c0 -10 -42 -23 -49 -15 -7 6 20 24 37 24 6 0 12 -4 12
-9z"/>
<path d="M7894 9510 c-20 -8 -22 -14 -18 -102 2 -51 3 -112 4 -135 0 -36 3
-41 18 -36 9 4 20 11 23 16 9 13 11 267 2 266 -4 0 -18 -4 -29 -9z m13 -232
c-3 -8 -6 -5 -6 6 -1 11 2 17 5 13 3 -3 4 -12 1 -19z"/>
<path d="M7715 9451 c-22 -10 -64 -24 -93 -31 l-52 -14 0 -137 c0 -132 1 -137
20 -132 11 3 20 14 20 24 0 10 4 21 10 24 6 3 7 -1 4 -9 -8 -20 12 -20 91 2
l60 17 5 138 c6 154 7 151 -65 118z m-42 -226 c-21 -17 -47 -20 -38 -5 3 6 12
10 20 10 7 0 17 10 21 23 7 19 8 20 12 4 2 -10 -5 -25 -15 -32z m62 35 c11
-18 -5 -31 -21 -16 -8 8 -14 17 -14 20 0 10 28 7 35 -4z m20 -40 c3 -5 1 -10
-4 -10 -6 0 -11 5 -11 10 0 6 2 10 4 10 3 0 8 -4 11 -10z m-21 -16 c4 -11 1
-14 -12 -12 -9 1 -23 -1 -30 -6 -8 -5 -18 -3 -25 4 -9 10 -8 12 6 7 11 -4 17
-1 17 8 0 20 36 19 44 -1z"/>
<path d="M7243 9398 l-33 -11 0 -140 0 -140 61 7 c34 3 75 6 92 6 27 0 29 3
24 28 -7 38 -103 265 -110 261 -1 -1 -17 -6 -34 -11z"/>
<path d="M7530 9090 c0 -5 -3 -9 -7 -9 -26 4 -35 -3 -15 -11 15 -6 22 -18 22
-35 0 -14 5 -25 10 -25 6 0 10 20 10 45 0 25 -4 45 -10 45 -5 0 -10 -4 -10
-10z"/>
<path d="M7500 9025 c0 -46 15 -46 16 0 0 19 -3 35 -8 35 -4 0 -8 -16 -8 -35z"/>
<path d="M7530 8940 c0 -5 5 -10 10 -10 6 0 10 5 10 10 0 6 -4 10 -10 10 -5 0
-10 -4 -10 -10z"/>
<path d="M8338 7223 c-15 -4 -17 -23 -20 -144 -2 -78 -2 -142 0 -144 2 -2 15
0 30 4 l27 7 3 142 c3 148 3 147 -40 135z"/>
<path d="M8540 6790 c0 -5 7 -10 15 -10 8 0 15 5 15 10 0 6 -7 10 -15 10 -8 0
-15 -4 -15 -10z"/>
<path d="M8578 6733 c7 -3 16 -2 19 1 4 3 -2 6 -13 5 -11 0 -14 -3 -6 -6z"/>
<path d="M8090 4755 c0 -8 9 -15 20 -15 11 0 20 7 20 15 0 8 -9 15 -20 15 -11
0 -20 -7 -20 -15z"/>
<path d="M8048 4703 c-9 -2 -19 -11 -22 -19 -4 -12 -2 -12 14 -4 15 8 40 33
28 29 -2 -1 -10 -3 -20 -6z"/>
<path d="M8040 4650 c0 -6 7 -10 15 -10 8 0 15 2 15 4 0 2 -7 6 -15 10 -8 3
-15 1 -15 -4z"/>
<path d="M7980 4606 c0 -2 7 -6 15 -10 8 -3 15 -1 15 4 0 6 -7 10 -15 10 -8 0
-15 -2 -15 -4z"/>
<path d="M7885 4430 c-19 -8 -19 -9 3 -9 12 -1 22 4 22 9 0 6 -1 10 -2 9 -2 0
-12 -4 -23 -9z"/>
<path d="M5730 2942 l0 -150 123 -6 c67 -3 259 -7 427 -8 l305 -3 0 145 0 145
-150 6 c-82 4 -275 10 -427 14 l-278 7 0 -150z"/>
</g>
</svg>
