<?xml version="1.0" standalone="no"?>
<!DOCTYPE svg PUBLIC "-//W3C//DTD SVG 20010904//EN"
 "http://www.w3.org/TR/2001/REC-SVG-20010904/DTD/svg10.dtd">
<svg version="1.0" xmlns="http://www.w3.org/2000/svg"
 width="700.000000pt" height="700.000000pt" viewBox="0 0 700.000000 700.000000"
 preserveAspectRatio="xMidYMid meet">
<metadata>
Created by potrace 1.14, written by Peter Selinger 2001-2017
</metadata>
<g transform="translate(0.000000,700.000000) scale(0.100000,-0.100000)"
fill="#000000" stroke="none">
<path d="M3302 6480 c-923 -67 -1743 -534 -2264 -1290 -237 -343 -407 -759
-477 -1164 -59 -337 -60 -690 -5 -1026 131 -798 606 -1529 1288 -1983 181
-121 481 -276 601 -311 20 -6 20 -2 17 444 l-2 450 110 0 110 0 0 -115 0 -115
120 0 120 0 0 -115 0 -115 115 0 115 0 0 -304 0 -303 68 -6 c37 -4 126 -7 198
-7 l131 0 15 39 c19 48 56 74 107 74 46 0 86 -25 103 -65 l13 -30 80 5 c236
17 557 103 832 222 792 345 1408 1036 1657 1857 266 880 123 1817 -392 2568
-495 721 -1277 1187 -2147 1279 -138 15 -387 20 -513 11z m-152 -1285 l0 -115
350 0 350 0 0 115 0 115 230 0 230 0 0 -115 0 -115 115 0 115 0 0 -345 0 -345
-1040 0 -1040 0 0 345 0 345 115 0 115 0 0 115 0 115 230 0 230 0 0 -115z
m-1620 -925 l0 -120 350 0 c227 0 350 -4 350 -10 0 -7 430 -10 1270 -10 840 0
1270 3 1270 10 0 6 123 10 350 10 l350 0 0 120 0 120 115 0 115 0 0 -235 0
-235 -115 0 -115 0 0 -115 0 -115 -465 0 -465 0 0 -115 0 -115 -1040 0 -1040
0 0 115 0 115 -465 0 -465 0 0 115 0 115 -115 0 -115 0 0 235 0 235 115 0 115
0 0 -120z m1150 -1165 l0 -115 120 0 120 0 0 -115 0 -115 235 0 235 0 0 115 0
115 115 0 115 0 0 115 0 115 230 0 230 0 0 -115 0 -115 115 0 115 0 0 -115 0
-115 115 0 115 0 0 -230 0 -230 -115 0 -115 0 0 -115 0 -115 -695 0 -695 0 0
115 0 115 -115 0 -115 0 0 120 0 120 -115 0 -115 0 0 115 0 115 -115 0 -115 0
0 225 0 225 225 0 225 0 0 -115z"/>
<path d="M3614 2527 c-2 -7 -3 -62 -2 -123 l3 -109 230 0 230 0 3 123 3 122
-231 0 c-181 0 -232 -3 -236 -13z"/>
<path d="M2490 692 c8 -5 26 -13 40 -16 17 -5 20 -4 10 2 -8 5 -26 13 -40 16
-17 5 -20 4 -10 -2z"/>
<path d="M2568 663 c7 -3 16 -2 19 1 4 3 -2 6 -13 5 -11 0 -14 -3 -6 -6z"/>
<path d="M2738 613 c7 -3 16 -2 19 1 4 3 -2 6 -13 5 -11 0 -14 -3 -6 -6z"/>
<path d="M2778 603 c7 -3 16 -2 19 1 4 3 -2 6 -13 5 -11 0 -14 -3 -6 -6z"/>
<path d="M2818 593 c7 -3 16 -2 19 1 4 3 -2 6 -13 5 -11 0 -14 -3 -6 -6z"/>
<path d="M2908 573 c7 -3 16 -2 19 1 4 3 -2 6 -13 5 -11 0 -14 -3 -6 -6z"/>
</g>
</svg>
