<svg version="1" xmlns="http://www.w3.org/2000/svg" width="933.333" height="933.333" viewBox="0 0 700.000000 700.000000"><path d="M325.1 1.1c-111.2 8-210 67.2-271.1 162.4-8.8 13.6-22.6 41-29.3 58C13.8 248.8 6 280.2 2.4 311c-2.4 19.8-2.4 58.2 0 78 8 67.1 33.3 127.9 75.2 180.5 11.3 14.1 38.8 41.6 52.9 52.9C224.3 697.1 347 719.3 460 682c90.1-29.8 163.8-94.8 205.4-181 16.8-34.9 27.5-72.1 32.2-112 2.4-19.8 2.4-58.2 0-78-9.3-78.6-42.7-148.9-97.1-204.9-38.9-40-84.5-68.8-138.4-87.5-41.5-14.4-91.3-20.8-137-17.5zM367 144.5c12 4.9 22 14.5 26.1 25.4 1.1 3 3 13.1 4.3 22.5 1.3 9.4 3.9 27.9 5.7 41.1 1.8 13.2 3.4 23.3 3.6 22.5.1-.8 1.4-10.1 2.7-20.5 8.3-63.1 8-61.7 12.9-70.8 8-15.1 25.2-23.8 44-22.3 18.4 1.4 34.9 16.8 38.8 36.1 1 5.1.9 8.3-.9 22-3.8 28.8-14.1 106.6-16.7 125-8.8 63.3-9.4 69-9.9 89.8-.5 17.5-1 22.5-3.2 32.5-3.2 14.5-7 24.9-12.8 35.5-9.9 18.1-20.8 31-37.3 44.2-25.9 20.6-55.2 30.4-91.2 30.5-13.9 0-31.4-3-44.3-7.6-11.6-4.2-29.8-13.8-38.9-20.8-9.4-7.1-22.4-20.3-29.3-29.6-2.5-3.3-7.7-12.5-11.7-20.3-5.7-11.2-7.9-16.9-10.7-27.7l-3.5-13.5-.4-56.7c-.3-39.2-.1-58.3.6-62 1.9-8.7 5.6-15.5 12.3-22.1 7.4-7.3 13-10.3 23.4-12.4 9.1-1.8 16.4-1 26.5 3.1 5.2 2.1 6.5 2.3 7.1 1.2 5.1-9.1 15.5-17.5 25.7-20.6 6.9-2.2 20.1-2.7 24.7-1 1.5.6 2.8.9 2.9.8.2-.2-.5-5.9-1.5-12.8-6.5-43.9-8.4-60.4-8.5-70.5 0-10.4.2-11.4 3.2-17.5 5.9-12 13.9-19.2 26.2-23.7 5.7-2.1 7.9-2.3 16.1-2 5.9.3 11.2 1.1 14 2.2z"/><path d="M346.3 166.9c-4.5 1.1-7.7 3.4-11 7.8-2.6 3.4-2.8 4.3-2.8 12.7.1 5.5 2.9 29.8 7.3 61.6 6.8 50.3 7.9 58.3 10.6 78.5l1.1 9 44.7.5c43 .5 44.8.6 47.5 2.6 1.6 1.2 5.2 6.6 8.5 13 3.2 6 5.7 10.4 5.8 9.9.1-3 8.7-68.2 11.1-84.8 1.8-12.5 3.4-24.6 10.1-76.7 1.3-9.6 1.9-18 1.5-20.1-1.2-5.8-6.9-11.6-13.4-13.5-3.4-1-6.8-1.3-9.1-.9-5.3.9-11.7 5-14 8.7-2.4 3.9-2.4 4-12.2 78.3-6.3 47.9-8.9 64.3-10.3 67.1-4.7 8.9-14.4 11.9-23.7 7.1-6.7-3.4-8.4-7.7-11-28.2-1.1-9.4-2.9-23.3-4-31-1-7.7-2.8-21-3.9-29.5s-3.1-23.2-4.5-32.5c-1.3-9.4-2.7-19.3-3.1-22.2-1.6-12.4-13.2-20.4-25.2-17.4zM296 292.3c-5.7 3-8.2 5.2-10.1 8.8-1.7 3.5-1.9 6.1-1.9 32.3 0 17.7.4 29.5 1.1 31.3 2.5 6.6 11 12.3 18.4 12.3 8.3 0 17.2-6.8 19.4-14.7.6-2.2 1.1-14.2 1.1-27.9 0-25.5-.8-31.3-5-36.6-4.4-5.7-16.9-8.7-23-5.5zM230.5 310.4c-4.5 1.9-9.3 7.2-10.5 11.4-.7 2.3-1 11-.8 23.4l.3 19.6 3.1 3.9c8.1 10.2 21.8 10.9 31.1 1.4 4.3-4.5 5.3-9.5 5.3-27.8 0-17.4-.8-21.7-4.7-26.4-5.2-6.2-16.4-8.7-23.8-5.5z"/><path d="M348.6 366.7c1.2 8.6 4.3 15.1 10 21.3 7 7.5 15.9 11.4 28.4 12.5 13.9 1.1 13.1.3 25.5 28.3 7.6 17.4 7.8 19.6 2.2 25-4.2 4.1-9.2 5-13.6 2.7-3.2-1.6-8-10.2-14.9-26.2-2-4.7-2.6-5.3-6-5.8-15.2-2.5-23.3-5.9-33.4-14-4.9-3.9-13.9-14.4-15-17.4-.1-.5-4.1.9-8.7 3.2-8.4 4.2-8.5 4.2-19.5 4.2-10.4 0-11.5-.2-17.8-3.2-3.7-1.7-8.6-4.6-10.7-6.4l-4-3.2-3.6 3.2c-10.6 9.3-28.1 12.7-42.5 8.2l-6.2-2 .4 19.7c.6 25.2 2.3 33.4 11.3 51.7 11.4 23.5 28.8 41 52 52.4 14 6.9 22 9.5 36.6 11.6 13.4 1.9 20 1.9 33.9 0 37.9-5.3 70.2-28.3 87.7-62.5 8.2-16.1 12.3-33 12.3-51.2V409l-11.7-23.5-11.8-23.5h-81.6l.7 4.7z"/></svg>